<svg data-v-0dd9719b="" version="1.0" xmlns="http://www.w3.org/2000/svg" xmlns:xlink="http://www.w3.org/1999/xlink" width="100%" height="100%" viewBox="0 0 340.000000 250.000000" preserveAspectRatio="xMidYMid meet" color-interpolation-filters="sRGB" style="margin: auto;"> <rect data-v-0dd9719b="" x="0" y="0" width="100%" height="100%" fill="#ffffff" fill-opacity="1" class="background"></rect> <rect data-v-0dd9719b="" x="0" y="0" width="100%" height="100%" fill="url(#watermark)" fill-opacity="1" class="watermarklayer"></rect> <g data-v-0dd9719b="" fill="#0a5694" class="icon-text-wrapper icon-svg-group iconsvg" transform="translate(114,68.03499984741211)"><g class="iconsvg-imagesvg" transform="translate(26,0)"><g><rect fill="#0a5694" fill-opacity="0" stroke-width="2" x="0" y="0" width="60" height="60" class="image-rect"></rect> <svg filter="url(#colors5963864748)" x="0" y="0" width="60" height="60" filtersec="colorsf8037318056" class="image-svg-svg primary" style="overflow: visible;"><svg xmlns="http://www.w3.org/2000/svg" viewBox="0.7999999999999998 0.7999999999999998 88.5 88.5"><path d="M45.1 87.3L2.8 45.1 45.1 2.8 87.3 45 45.1 87.3zm21.1-63.4L45.1 45.1v42.2M73.2 31L52.1 52.1v28.2M80.3 38L59.1 59.1v14.1m-35.2-7L45 45.1V2.8M16.9 59.1L38 38V9.9M9.9 52.1L31 31V16.9m0 56.3l14.1-14.1M38 80.3l7-7m14.1-56.4L45.1 31m7-21.1l-7 7" fill="none" stroke="#333" stroke-width="4" stroke-miterlimit="10"></path></svg></svg> <defs><filter id="colors5963864748"><feColorMatrix type="matrix" values="0 0 0 0 0.08984375  0 0 0 0 0.1171875  0 0 0 0 0.375  0 0 0 1 0" class="icon-fecolormatrix"></feColorMatrix></filter> <filter id="colorsf8037318056"><feColorMatrix type="matrix" values="0 0 0 0 0.99609375  0 0 0 0 0.99609375  0 0 0 0 0.99609375  0 0 0 1 0" class="icon-fecolormatrix"></feColorMatrix></filter> <filter id="colorsb2613321652"><feColorMatrix type="matrix" values="0 0 0 0 0  0 0 0 0 0  0 0 0 0 0  0 0 0 1 0" class="icon-fecolormatrix"></feColorMatrix></filter></defs></g></g> <g transform="translate(0,67)"><g data-gra="path-name" fill-rule="" class="tp-name iconsvg-namesvg"><g transform="scale(1)"><g><path d="M22.3-46.02L22.3-46.02 22.3-44.72Q20.21-44.66 19.14-44.23 18.07-43.81 17.75-42.67 17.42-41.54 17.42-39.13L17.42-39.13 17.42-6.89Q17.42-4.55 17.78-3.38 18.14-2.21 19.18-1.82 20.21-1.43 22.3-1.3L22.3-1.3 22.3 0Q20.54-0.13 17.88-0.16 15.21-0.2 12.48-0.2L12.48-0.2Q9.29-0.2 6.6-0.16 3.9-0.13 2.21 0L2.21 0 2.21-1.3Q4.29-1.43 5.33-1.82 6.37-2.21 6.73-3.38 7.08-4.55 7.08-6.89L7.08-6.89 7.08-39.13Q7.08-41.54 6.73-42.67 6.37-43.81 5.3-44.23 4.23-44.66 2.21-44.72L2.21-44.72 2.21-46.02Q3.9-45.95 6.6-45.89 9.29-45.83 12.48-45.83L12.48-45.83Q15.21-45.83 17.88-45.89 20.54-45.95 22.3-46.02ZM26.65-44.72L26.65-46.02Q28.28-45.95 31.04-45.89 33.8-45.83 36.53-45.83L36.53-45.83Q39.65-45.83 42.58-45.89 45.5-45.95 46.73-45.95L46.73-45.95Q54.8-45.95 58.79-43.09 62.79-40.23 62.79-35.75L62.79-35.75Q62.79-33.48 61.42-31.14 60.06-28.8 57.2-26.98 54.34-25.16 49.79-24.31L49.79-24.31 49.79-24.18Q55.9-23.73 59.48-21.97 63.05-20.21 64.61-17.75 66.17-15.28 66.17-12.61L66.17-12.61Q66.17-6.5 61.39-3.25 56.62 0 48.23 0L48.23 0Q46.67 0 43.71-0.1 40.76-0.2 36.66-0.2L36.66-0.2Q33.8-0.2 31.04-0.16 28.28-0.13 26.65 0L26.65 0 26.65-1.3Q28.73-1.43 29.77-1.82 30.81-2.21 31.17-3.38 31.53-4.55 31.53-6.89L31.53-6.89 31.53-39.13Q31.53-41.54 31.17-42.67 30.81-43.81 29.74-44.23 28.67-44.66 26.65-44.72L26.65-44.72ZM45.89-44.72L45.89-44.72Q43.36-44.72 42.61-43.62 41.86-42.51 41.86-39.13L41.86-39.13 41.86-6.89Q41.86-3.51 42.7-2.5 43.55-1.5 46.34-1.5L46.34-1.5Q51.03-1.5 53.2-4.45 55.38-7.41 55.38-12.87L55.38-12.87Q55.38-17.88 52.88-20.61 50.38-23.34 44.59-23.34L44.59-23.34 39.06-23.34Q39.06-23.34 39.06-23.89 39.06-24.44 39.06-24.44L39.06-24.44 44.66-24.44Q47.71-24.44 49.34-25.9 50.96-27.37 51.61-29.8 52.26-32.24 52.26-35.04L52.26-35.04Q52.26-39.84 50.77-42.28 49.27-44.72 45.89-44.72ZM70.14-44.72L70.14-46.02Q71.76-45.95 74.52-45.89 77.29-45.83 80.02-45.83L80.02-45.83Q83.14-45.83 86.06-45.89 88.99-45.95 90.22-45.95L90.22-45.95Q99.26-45.95 103.74-43 108.23-40.04 108.23-34.65L108.23-34.65Q108.23-32.44 107.32-30.19 106.41-27.95 104.23-26.03 102.05-24.12 98.28-22.98 94.51-21.84 88.79-21.84L88.79-21.84 82.55-21.84 82.55-23.14 88.14-23.14Q91.98-23.14 93.96-24.6 95.94-26.07 96.69-28.5 97.44-30.94 97.44-33.93L97.44-33.93Q97.44-39.07 95.62-41.89 93.8-44.72 89.38-44.72L89.38-44.72Q86.84-44.72 86.09-43.62 85.35-42.51 85.35-39.13L85.35-39.13 85.35-6.89Q85.35-4.55 85.7-3.38 86.06-2.21 87.1-1.82 88.14-1.43 90.22-1.3L90.22-1.3 90.22 0Q88.47-0.13 85.8-0.16 83.14-0.2 80.41-0.2L80.41-0.2Q77.29-0.2 74.52-0.16 71.76-0.13 70.14 0L70.14 0 70.14-1.3Q72.22-1.43 73.26-1.82 74.3-2.21 74.65-3.38 75.01-4.55 75.01-6.89L75.01-6.89 75.01-39.13Q75.01-41.54 74.65-42.67 74.3-43.81 73.22-44.23 72.15-44.66 70.14-44.72L70.14-44.72ZM82.55-21.84L82.42-22.95Q85.22-22.88 87.26-22.69 89.31-22.49 90.87-22.33 92.43-22.16 93.67-22.1L93.67-22.1Q99.58-21.58 102.41-19.57 105.24-17.55 106.08-13.52L106.08-13.52 107.58-6.83Q108.16-4.23 108.81-3.19 109.46-2.15 110.7-2.15L110.7-2.15Q111.54-2.21 112.09-2.57 112.65-2.93 113.3-3.64L113.3-3.64 114.21-2.86Q112.45-0.84 110.44 0.03 108.42 0.91 105.56 0.91L105.56 0.91Q102.05 0.91 99.78-0.58 97.5-2.08 96.79-6.11L96.79-6.11 95.62-12.61Q95.16-15.34 94.51-17.39 93.86-19.44 92.72-20.64 91.59-21.84 89.57-21.84L89.57-21.84 82.55-21.84Z" transform="translate(-2.2100000381469727, 46.02000045776367)"></path></g> <!----> <!----> <!----> <!----> <!----> <!----> <!----></g></g> <!----></g></g><defs v-gra="od"></defs></svg>